# xmcd
#
# Track frame offsets:
#	150
#	24577
#	47505
#	68397
#	103880
#	126757
#	141080
#	188632
#	213447
#	228550
#	241637
#	265920
#	290275
#	313152
#
# Disc length: 4478 seconds
#
# Revision: 1
# Processed by: cddbd v1.5PL3 Copyright (c) Steve Scherf et al.
# Submitted via: audiograbber 1.83.01
#
DISCID=c2117c0e
DTITLE=Kirk " Eli " Fletcher - I'm Here and I'm Gone
DYEAR=1999
DGENRE=Blues
TTITLE0=I Ain't Doing Nothing Wrong
TTITLE1=What Is Going On
TTITLE2=Chirch Street Boogie
TTITLE3=I'm Not Your Fool
TTITLE4=What Happened To You
TTITLE5=School Street Shuffle
TTITLE6=Silver Spoon
TTITLE7=You Went Back On Your Word
TTITLE8=Mr Mann
TTITLE9=Bye Bye So Long
TTITLE10=Watsonized
TTITLE11=I Ain't Doing Nothing Wrong
TTITLE12=What Is Going On
TTITLE13=What Happened To You
EXTD=Last 3 tracks are alternate mixes and are in Mono
EXTT0=
EXTT1=
EXTT2=
EXTT3=
EXTT4=
EXTT5=
EXTT6=
EXTT7=
EXTT8=
EXTT9=
EXTT10=
EXTT11=
EXTT12=
EXTT13=
PLAYORDER=
